<?xml version="1.0" encoding="UTF-8"?><svg id="Layer_1" xmlns="http://www.w3.org/2000/svg" viewBox="0 0 453.27 328.5"><defs><style>.cls-1{fill:#000;}</style></defs><path class="cls-1" d="M352.89,231.27l19.11,7.23,3-7.5-22.11.27ZM88.5,254.25l5.25,9.75c25.52-17.55,16.16-12.77,39.68-27.93l7.57,8.43-35.25,31.5,9,8.65,32.85-33.24,7.33,5.89c.4.35-26.75,38.88-26.75,38.88l9.82,6.82,25.5-40.5,10.45,6.04-21.7,43.46,9.75,4.5,20.42-43.98,9.32,3.18-13.98,46.06,12.75,3,10.5-47.25,9.92,1.95-4.67,48.3,12.75.75,2.12-48.57,11.25-.13,2.38,48.71,12.75-1.5-5.2-47.76,9.83-1.78,10.37,46.54,12.75-3-13.45-46.54,8.58-3.1,19.12,43.64,12-4.5-21.25-44.61,8.85-5.2,27.85,40.97,8.46-6.03-30.66-39.88,10.5-8.25s21.36,24.12,32.25,36l8.25-8.25c-4.83-3.41-34.47-33-34.47-33l6.73-7.37,38.21,26.84,7.53-8.97-33.66-21.49c-50.41-.6-162.83-.35-204.84.11l-36.75,22.88M75,231l4.31,9.21,19.96-8.86-24.27-.35M181.5,203.25v-15.75c3.62,0,7.96-.52,11.15,1.57,4.49,2.93,3.98,10.81-.68,13.3-2.96,1.58-7.22.89-10.47.89M362.27,125.7c4.19-1.62,9.62.02,10.38,4.8.9,5.74.49,16.27.51,18l.27,35.73c.04,5.04.06,16.54-4.43,18.56-4.09,1.85-9.62-.02-10.37-4.8-.9-5.74-.11-12.19-.11-18v-36c0-5.04-2.18-16.01,3.77-18.3M258,170.25h-14.25v-33c0-3.4-1.02-9.02,2.42-11.12,3.78-2.31,10.42-.95,11.59,3.62,1.05,4.1.24,9.28.24,13.5v27M181.5,170.25v-45.75c2.52.11,5.11.35,7.5,1.21,9.6,3.45,6.75,17.02,6.75,25.04,0,5.14,1.19,12.18-2.56,16.33-3.02,3.33-7.58,3.16-11.69,3.17M420,183.75h-18.75c0,10.8-.75,21.6,7.63,29.86,14.48,14.28,38.86,5.53,43.45-13.36,3.3-13.6-2.38-27.89-12.14-37.38-6.81-6.61-16.84-12.19-19.59-21.87-1.05-3.68-1.02-8.62.98-11.99,2.4-4.05,6.84-5.01,10.12-1.35,3.87,4.31,2.56,11.76,2.56,17.09h18.75c0-11.33.55-21.88-8.47-30.29-14.26-13.31-38.09-5.55-42.6,13.04-3.48,14.34,2.59,27.67,12.82,37.47,7.04,6.74,15.81,11.88,18.72,21.78,1.2,4.09,1.25,9.1-1.25,12.74-2.24,3.27-5.79,5.11-9.05,2.05-4.55-4.27-3.17-12.17-3.17-17.79M360.75,108.33c-8.42,1.32-16.28,5.67-19.55,13.92-2.52,6.34-1.45,30.75-1.45,30.75l.27,36.27c.04,5.82-1.11,9.86.65,15.48,3.88,12.38,17.95,17.29,29.84,15.42,8.26-1.3,16.14-5.92,19.43-13.92,3.66-8.91,2.12-28.82,2.1-30.35l-.53-33.4c-.09-5.79.88-12.4-.78-18-3.79-12.78-17.66-18.11-29.97-16.17M286.5,108v112.5h42.75c.19-5.56.02-11.85-.51-17.38-7.82.09-15.66.42-23.49.13v-95.25h-18.75M225,220.5h18.75v-33h14.25v33h18.75v-66c0-9.7,2.12-22.31-1.28-31.5-6.55-17.7-34.73-20.28-46.02-5.93-6.71,8.53-4.45,21.28-4.45,31.43v72M162.75,108v112.5c11.78,0,26.49,2.38,37.5-2.51,14.71-6.54,19.92-28.11,7.5-39.49,7.57-9.85,6.75-19.69,6.75-31.5,0-12.79.83-25.64-11.25-33.67-11.63-7.73-27.26-5.33-40.5-5.33M114,108v112.5h18.75v-112.5h-18.75M52.5,108v112.5h18.75v-33h14.25v33h18.75v-112.5h-18.75v62.25h-14.25v-62.25h-18.75M0,108v112.5h42.75c.26-5.43,1.92-17.77,1.92-17.77-1.21-.26-18.16.52-25.92.52v-95.25H0M356.16,85.71l-2.77,11.4,22.72,5.17,3.25-7.54M78.75,89.25l-3,6h15l-12-6M356.25,66l-41.3,29.16,14.94.02,33.3-20.55-6.94-8.62M93,65.25l-5.25,9,33,20.62,13.68.25-41.43-29.87M206.25.75l5.85,51.34-9.65,1.16-11.95-49.5-12,2.25,14.25,50.25-10.5,3-19.5-47.25-11.25,4.5,21.84,45.97-8.34,4.13-28.49-40.35-8.07,5.91,29.02,39.31-9.7,7.56-34.23-35.72-7.77,6.95,36.75,34.5-8.16,10.23,180.84.27c-1.15-2.32-6.18-6.75-6.18-6.75l36.38-36-7.69-7.5-34.64,37.23-7.25-6.89,29.76-40.91-10.55-7.44-27.13,42.88-9.22-5.7,22.29-45.41-9.93-5.28-20.25,47.25-10.5-3.75,15-49.5-11.32-3.26-12.68,50.51-8.45-2.18,4.7-51.07-12.75-1.5-2.25,51.75h-11.25l-2.25-51.75-12.75.75"/></svg>